# xmcd
#
# Track frame offsets:
#	150
#	14033
#	28315
#	42980
#	54550
#	67643
#	83770
#	97713
#	111150
#	126131
#	140812
#	154790
#	167336
#	181748
#
# Disc length: 2609 seconds
#
# Revision: 1
# Processed by: cddbd v1.5.2PL0 Copyright (c) Steve Scherf et al.
# Submitted via: EasyCDDAExtractor 16.0.1.1
#
DISCID=af0a2f0e
DTITLE=Various Artist - Χοροί and τραγούδια απ' όλη την Ελλάδα (2009)
DYEAR=2009
DGENRE=Δημοτικά
TTITLE0=Αιμιλία Καρζή - Στ' Αναπλιού το Παλαμήδι (Τσάμικος)
TTITLE1=Γιώργος Παπασιδέρης - Σαράντα παλικάρια (Τσάμικος)
TTITLE2=Ορχηστρικό - Ένας αητός καθότανε (Τσάμικος)
TTITLE3=Γιάννης Καλούσης - Πουλιά μου διαβατάρικα (Τσάμικος)
TTITLE4=Δημοσθένης Βλαχαγγέλης - Πουλάκι ξένο (Τσάμικος)
TTITLE5=Ηλίας Παπαγεωργίου - Ένας αητός περήφανος (Τσάμικος)
TTITLE6=Βούλα Πάλλα - Ένας λεβέντης στο Μωριά (Συρτός)
TTITLE7=Δημοσθένης Βλαχαγγέλης - Συννέφιασε ο Παρνασσός (Τσάμικος)
TTITLE8=Λάμπρος Παπαθανασίου - Στα Σάλωνα σφάζουν αρνιά (Τσάμικος)
TTITLE9=Αιμιλία Καρζή - Γαργαλιανιώτισσα (Καλαματιανός)
TTITLE10=Γιώργος Παπασιδέρης - Στης Αρκαδιάς τον Πλάτανο (Τσάμικος)
TTITLE11=Λάμπρος Παπαθανασίου - Βιολέτα μ' ανθισμένη (Καλαματιανός)
TTITLE12=Αιμιλία Καρζή - Το μαργιόλικο (Τσάμικος)
TTITLE13=Λάμπρος Παπαθανασίου - Βουνά μην καμαρώνετε (Τσάμικος)
EXTD=
EXTT0=
EXTT1=
EXTT2=
EXTT3=
EXTT4=
EXTT5=
EXTT6=
EXTT7=
EXTT8=
EXTT9=
EXTT10=
EXTT11=
EXTT12=
EXTT13=
PLAYORDER=
